<svg xmlns="http://www.w3.org/2000/svg" xmlns:xlink="http://www.w3.org/1999/xlink" width="500" zoomAndPan="magnify" viewBox="0 0 375 374.999991" height="500" preserveAspectRatio="xMidYMid meet" version="1.0"><defs><clipPath id="10ccfbbd6e"><path d="M 32.746094 45.988281 L 79.960938 45.988281 L 79.960938 93.238281 L 32.746094 93.238281 Z M 32.746094 45.988281 " clip-rule="nonzero"/></clipPath><clipPath id="f82125cf8c"><path d="M 8.265625 30.160156 L 62.265625 30.160156 L 62.265625 84.160156 L 8.265625 84.160156 Z M 8.265625 30.160156 " clip-rule="nonzero"/></clipPath><clipPath id="ad4756a6db"><path d="M 11.367188 34.234375 L 58.617188 34.234375 L 58.617188 81.484375 L 11.367188 81.484375 Z M 11.367188 34.234375 " clip-rule="nonzero"/></clipPath><clipPath id="6c4fa12440"><path d="M 35.25 7.113281 L 89.015625 7.113281 L 89.015625 61.113281 L 35.25 61.113281 Z M 35.25 7.113281 " clip-rule="nonzero"/></clipPath><clipPath id="215a6846fa"><path d="M 38.523438 10.589844 L 85.738281 10.589844 L 85.738281 57.839844 L 38.523438 57.839844 Z M 38.523438 10.589844 " clip-rule="nonzero"/></clipPath></defs><g clip-path="url(#10ccfbbd6e)"><path fill="#6a4c93" d="M 56.351562 45.988281 C 69.410156 45.988281 79.996094 56.574219 79.996094 69.628906 L 79.996094 93.273438 L 56.355469 93.273438 C 43.296875 93.273438 32.710938 82.6875 32.710938 69.628906 C 32.710938 56.574219 43.296875 45.988281 56.351562 45.988281 " fill-opacity="1" fill-rule="nonzero"/></g><g clip-path="url(#f82125cf8c)"><path fill="#ffffff" d="M 35.382812 30.160156 C 20.40625 30.160156 8.265625 42.300781 8.265625 57.277344 L 8.265625 84.394531 L 35.382812 84.394531 C 50.359375 84.394531 62.5 72.253906 62.5 57.277344 C 62.5 42.300781 50.359375 30.160156 35.382812 30.160156 " fill-opacity="1" fill-rule="nonzero"/></g><g clip-path="url(#ad4756a6db)"><path fill="#ff595e" d="M 35.011719 34.234375 C 21.953125 34.238281 11.371094 44.820312 11.367188 57.878906 L 11.371094 81.519531 L 35.011719 81.519531 C 48.070312 81.519531 58.652344 70.9375 58.652344 57.878906 C 58.652344 44.820312 48.070312 34.238281 35.011719 34.234375 " fill-opacity="1" fill-rule="nonzero"/></g><g clip-path="url(#6c4fa12440)"><path fill="#ffffff" d="M 62.132812 7.113281 C 77.109375 7.117188 89.25 19.253906 89.25 34.230469 L 89.25 61.347656 L 62.132812 61.347656 C 47.15625 61.347656 35.015625 49.207031 35.015625 34.230469 C 35.015625 19.253906 47.15625 7.117188 62.132812 7.113281 " fill-opacity="1" fill-rule="nonzero"/></g><g clip-path="url(#215a6846fa)"><path fill="#ffb703" d="M 62.132812 10.589844 C 75.191406 10.589844 85.773438 21.175781 85.773438 34.230469 L 85.773438 57.875 L 62.132812 57.875 C 49.074219 57.875 38.492188 47.289062 38.488281 34.230469 C 38.492188 21.175781 49.074219 10.589844 62.132812 10.589844 " fill-opacity="1" fill-rule="nonzero"/></g></svg>